<mxfile host="app.diagrams.net" agent="Mozilla/5.0 (Windows NT 10.0; Win64; x64) AppleWebKit/537.36 (KHTML, like Gecko) Chrome/132.0.0.0 Safari/537.36" version="26.0.11">
  <diagram name="第 1 页" id="utJVNVcFiXrP77y_mI3D">
    <mxGraphModel dx="1066" dy="633" grid="1" gridSize="10" guides="1" tooltips="1" connect="1" arrows="1" fold="1" page="1" pageScale="1" pageWidth="827" pageHeight="1169" math="0" shadow="0">
      <root>
        <mxCell id="0" />
        <mxCell id="1" parent="0" />
        <mxCell id="Pv2qresyjPH6O69dxo0p-4" value="" style="edgeStyle=orthogonalEdgeStyle;rounded=0;orthogonalLoop=1;jettySize=auto;html=1;" edge="1" parent="1" source="Pv2qresyjPH6O69dxo0p-1" target="Pv2qresyjPH6O69dxo0p-3">
          <mxGeometry relative="1" as="geometry" />
        </mxCell>
        <mxCell id="Pv2qresyjPH6O69dxo0p-5" value="MQTT指令" style="edgeLabel;html=1;align=center;verticalAlign=middle;resizable=0;points=[];" vertex="1" connectable="0" parent="Pv2qresyjPH6O69dxo0p-4">
          <mxGeometry x="-0.2088" y="2" relative="1" as="geometry">
            <mxPoint as="offset" />
          </mxGeometry>
        </mxCell>
        <mxCell id="Pv2qresyjPH6O69dxo0p-1" value="&lt;font style=&quot;font-size: 14px;&quot;&gt;主服务器&lt;/font&gt;" style="rounded=1;whiteSpace=wrap;html=1;fillColor=light-dark(#FFB366,var(--ge-dark-color, #121212));" vertex="1" parent="1">
          <mxGeometry x="110" y="200" width="90" height="40" as="geometry" />
        </mxCell>
        <mxCell id="Pv2qresyjPH6O69dxo0p-2" style="edgeStyle=orthogonalEdgeStyle;rounded=0;orthogonalLoop=1;jettySize=auto;html=1;exitX=1;exitY=0.5;exitDx=0;exitDy=0;entryX=1;entryY=0;entryDx=0;entryDy=0;" edge="1" parent="1" source="Pv2qresyjPH6O69dxo0p-1" target="Pv2qresyjPH6O69dxo0p-1">
          <mxGeometry relative="1" as="geometry" />
        </mxCell>
        <mxCell id="Pv2qresyjPH6O69dxo0p-7" value="" style="edgeStyle=orthogonalEdgeStyle;rounded=0;orthogonalLoop=1;jettySize=auto;html=1;" edge="1" parent="1" source="Pv2qresyjPH6O69dxo0p-3" target="Pv2qresyjPH6O69dxo0p-6">
          <mxGeometry relative="1" as="geometry" />
        </mxCell>
        <mxCell id="Pv2qresyjPH6O69dxo0p-8" value="PWM信号驱动舵机" style="edgeLabel;html=1;align=center;verticalAlign=middle;resizable=0;points=[];" vertex="1" connectable="0" parent="Pv2qresyjPH6O69dxo0p-7">
          <mxGeometry x="-0.3133" y="2" relative="1" as="geometry">
            <mxPoint as="offset" />
          </mxGeometry>
        </mxCell>
        <mxCell id="Pv2qresyjPH6O69dxo0p-3" value="&lt;font style=&quot;font-size: 14px;&quot;&gt;ESP32控制板&lt;/font&gt;" style="rounded=1;whiteSpace=wrap;html=1;fillColor=light-dark(#FFB366,var(--ge-dark-color, #121212));" vertex="1" parent="1">
          <mxGeometry x="110" y="300" width="90" height="40" as="geometry" />
        </mxCell>
        <mxCell id="Pv2qresyjPH6O69dxo0p-9" style="edgeStyle=orthogonalEdgeStyle;rounded=0;orthogonalLoop=1;jettySize=auto;html=1;exitX=1;exitY=0.5;exitDx=0;exitDy=0;" edge="1" parent="1" source="Pv2qresyjPH6O69dxo0p-6">
          <mxGeometry relative="1" as="geometry">
            <mxPoint x="190" y="430" as="targetPoint" />
          </mxGeometry>
        </mxCell>
        <mxCell id="Pv2qresyjPH6O69dxo0p-6" value="&lt;font style=&quot;font-size: 14px;&quot;&gt;物联网立库&lt;/font&gt;" style="rounded=1;whiteSpace=wrap;html=1;fillColor=light-dark(#FFB366,var(--ge-dark-color, #121212));" vertex="1" parent="1">
          <mxGeometry x="110" y="400" width="90" height="40" as="geometry" />
        </mxCell>
      </root>
    </mxGraphModel>
  </diagram>
</mxfile>
